adventprofmm-Bold.ufo
<glyph name="quotedbl" format="1">
  <advance width="283"/>
  <unicode hex="0022"/>
  <outline>
    <contour>
      <point x="164" y="694" type="line"/>
      <point x="164" y="715"/>
      <point x="190" y="737"/>
      <point x="226" y="737"/>
      <point x="253" y="715"/>
      <point x="253" y="694" type="qcurve"/>
      <point x="240" y="587" type="line"/>
      <point x="177" y="587" type="line"/>
    </contour>
    <contour>
      <point x="28" y="694" type="line"/>
      <point x="28" y="715"/>
      <point x="55" y="737"/>
      <point x="91" y="737"/>
      <point x="118" y="715"/>
      <point x="118" y="694" type="qcurve"/>
      <point x="104" y="587" type="line"/>
      <point x="42" y="587" type="line"/>
    </contour>
  </outline>
</glyph>
<glyph name="parenright" format="1">
  <advance width="242"/>
  <unicode hex="0029"/>
  <outline>
    <contour>
      <point x="82" y="816" type="line"/>
      <point x="128" y="790"/>
      <point x="180" y="721"/>
      <point x="201" y="644"/>
      <point x="201" y="604" type="qcurve" smooth="yes"/>
      <point x="201" y="94" type="line" smooth="yes"/>
      <point x="201" y="64"/>
      <point x="191" y="6"/>
      <point x="165" y="-47"/>
      <point x="118" y="-95"/>
      <point x="81" y="-116" type="qcurve"/>
      <point x="26" y="-35" type="line"/>
      <point x="26" y="-35"/>
      <point x="46" y="-21"/>
      <point x="72" y="11"/>
      <point x="92" y="64"/>
      <point x="92" y="103" type="qcurve" smooth="yes"/>
      <point x="92" y="143"/>
      <point x="92" y="270"/>
      <point x="92" y="465"/>
      <point x="92" y="606" type="qcurve" smooth="yes"/>
      <point x="92" y="642"/>
      <point x="72" y="689"/>
      <point x="47" y="717"/>
      <point x="27" y="729"/>
      <point x="27" y="729" type="qcurve"/>
    </contour>
  </outline>
</glyph>
<glyph name="hyphen" format="1">
  <advance width="393"/>
  <unicode hex="002D"/>
  <outline>
    <contour>
      <point x="35" y="306" type="line"/>
      <point x="35" y="413" type="line"/>
      <point x="354" y="413" type="line"/>
      <point x="354" y="306" type="line"/>
    </contour>
  </outline>
</glyph>
<glyph name="period" format="1">
  <advance width="189"/>
  <unicode hex="002E"/>
  <outline>
    <contour>
      <point x="94" y="103" type="qcurve" smooth="yes"/>
      <point x="119" y="103"/>
      <point x="155" y="68"/>
      <point x="155" y="43" type="qcurve" smooth="yes"/>
      <point x="155" y="18"/>
      <point x="119" y="-17"/>
      <point x="94" y="-17" type="qcurve" smooth="yes"/>
      <point x="69" y="-17"/>
      <point x="35" y="18"/>
      <point x="35" y="43" type="qcurve" smooth="yes"/>
      <point x="35" y="68"/>
      <point x="69" y="103"/>
    </contour>
  </outline>
</glyph>
<glyph name="two" format="1">
  <advance width="441"/>
  <unicode hex="0032"/>
  <outline>
    <contour>
      <point x="48" y="588" type="line"/>
      <point x="69" y="644"/>
      <point x="165" y="708"/>
      <point x="225" y="708" type="qcurve" smooth="yes"/>
      <point x="270" y="708"/>
      <point x="351" y="670"/>
      <point x="402" y="594"/>
      <point x="402" y="538" type="qcurve" smooth="yes"/>
      <point x="402" y="492"/>
      <point x="367" y="414"/>
      <point x="339" y="372" type="qcurve" smooth="yes"/>
      <point x="317" y="338"/>
      <point x="268" y="264"/>
      <point x="204" y="168"/>
      <point x="159" y="100" type="qcurve"/>
      <point x="405" y="100" type="line"/>
      <point x="405" y="0" type="line"/>
      <point x="32" y="0" type="line"/>
      <point x="32" y="101" type="line"/>
      <point x="86" y="182"/>
      <point x="194" y="343"/>
      <point x="251" y="422" type="qcurve"/>
      <point x="269" y="451"/>
      <point x="288" y="488"/>
      <point x="294" y="515"/>
      <point x="294" y="529" type="qcurve" smooth="yes"/>
      <point x="294" y="553"/>
      <point x="274" y="584"/>
      <point x="242" y="600"/>
      <point x="224" y="601" type="qcurve"/>
      <point x="196" y="601"/>
      <point x="150" y="570"/>
      <point x="139" y="541" type="qcurve"/>
    </contour>
  </outline>
</glyph>
<glyph name="nine" format="1">
  <advance width="484"/>
  <unicode hex="0039"/>
  <outline>
    <contour>
      <point x="238" y="708" type="qcurve" smooth="yes"/>
      <point x="325" y="708"/>
      <point x="388" y="647" type="qcurve"/>
      <point x="449" y="584"/>
      <point x="449" y="496" type="qcurve" smooth="yes"/>
      <point x="449" y="238" type="line" smooth="yes"/>
      <point x="449" y="198"/>
      <point x="426" y="121"/>
      <point x="399" y="82" type="qcurve"/>
      <point x="372" y="46"/>
      <point x="273" y="-1"/>
      <point x="206" y="-1" type="qcurve" smooth="yes"/>
      <point x="171" y="-1" type="line"/>
      <point x="171" y="100" type="line"/>
      <point x="210" y="100" type="line" smooth="yes"/>
      <point x="241" y="100"/>
      <point x="288" y="122"/>
      <point x="304" y="140" type="qcurve" smooth="yes"/>
      <point x="322" y="162"/>
      <point x="340" y="224"/>
      <point x="340" y="262" type="qcurve" smooth="yes"/>
      <point x="340" y="315" type="line"/>
      <point x="340" y="315"/>
      <point x="317" y="301"/>
      <point x="272" y="286"/>
      <point x="238" y="286" type="qcurve" smooth="yes"/>
      <point x="195" y="286"/>
      <point x="118" y="315"/>
      <point x="87" y="345" type="qcurve"/>
      <point x="26" y="409"/>
      <point x="26" y="496" type="qcurve" smooth="yes"/>
      <point x="26" y="584"/>
      <point x="87" y="647" type="qcurve"/>
      <point x="151" y="708"/>
    </contour>
    <contour>
      <point x="238" y="599" type="qcurve" smooth="yes"/>
      <point x="210" y="599"/>
      <point x="162" y="572"/>
      <point x="134" y="526"/>
      <point x="134" y="497" type="qcurve" smooth="yes"/>
      <point x="134" y="469"/>
      <point x="162" y="422"/>
      <point x="210" y="394"/>
      <point x="238" y="394" type="qcurve" smooth="yes"/>
      <point x="267" y="394"/>
      <point x="313" y="422"/>
      <point x="340" y="469"/>
      <point x="340" y="497" type="qcurve" smooth="yes"/>
      <point x="340" y="526"/>
      <point x="313" y="572"/>
      <point x="267" y="599"/>
    </contour>
  </outline>
</glyph>
<glyph name="colon" format="1">
  <advance width="196"/>
  <unicode hex="003A"/>
  <outline>
    <contour>
      <point x="157" y="143" type="qcurve" smooth="yes"/>
      <point x="157" y="118"/>
      <point x="121" y="84"/>
      <point x="96" y="84" type="qcurve" smooth="yes"/>
      <point x="71" y="84"/>
      <point x="38" y="118"/>
      <point x="38" y="143" type="qcurve" smooth="yes"/>
      <point x="38" y="168"/>
      <point x="71" y="204"/>
      <point x="96" y="204" type="qcurve" smooth="yes"/>
      <point x="121" y="204"/>
      <point x="157" y="168"/>
    </contour>
    <contour>
      <point x="157" y="385" type="qcurve" smooth="yes"/>
      <point x="157" y="360"/>
      <point x="121" y="324"/>
      <point x="96" y="324" type="qcurve" smooth="yes"/>
      <point x="71" y="324"/>
      <point x="38" y="360"/>
      <point x="38" y="385" type="qcurve" smooth="yes"/>
      <point x="38" y="409"/>
      <point x="71" y="444"/>
      <point x="96" y="444" type="qcurve" smooth="yes"/>
      <point x="121" y="444"/>
      <point x="157" y="409"/>
    </contour>
  </outline>
</glyph>
<glyph name="C" format="1">
  <advance width="426"/>
  <unicode hex="0043"/>
    <anchor name="bottom" x="213" y="0"/>
    <anchor name="top" x="213" y="735"/>
  <outline>
    <contour>
      <point x="342" y="582" type="line"/>
      <point x="322" y="590"/>
      <point x="271" y="599"/>
      <point x="248" y="599" type="qcurve" smooth="yes"/>
      <point x="199" y="599"/>
      <point x="146" y="559"/>
      <point x="146" y="512" type="qcurve" smooth="yes"/>
      <point x="146" y="185" type="line" smooth="yes"/>
      <point x="146" y="154"/>
      <point x="168" y="117"/>
      <point x="209" y="100"/>
      <point x="239" y="100" type="qcurve" smooth="yes"/>
      <point x="270" y="100"/>
      <point x="330" y="114"/>
      <point x="374" y="127"/>
      <point x="380" y="127" type="qcurve"/>
      <point x="396" y="23" type="line"/>
      <point x="309" y="-11"/>
      <point x="233" y="-12" type="qcurve"/>
      <point x="193" y="-12"/>
      <point x="121" y="10"/>
      <point x="95" y="32" type="qcurve" smooth="yes"/>
      <point x="68" y="56"/>
      <point x="36" y="131"/>
      <point x="36" y="183" type="qcurve" smooth="yes"/>
      <point x="36" y="509" type="line" smooth="yes"/>
      <point x="36" y="575"/>
      <point x="86" y="664"/>
      <point x="173" y="710"/>
      <point x="228" y="710" type="qcurve" smooth="yes"/>
      <point x="300" y="710"/>
      <point x="372" y="675" type="qcurve"/>
    </contour>
    <contour>
      <point x="213" y="0" type="move" name="bottom"/>
    </contour>
    <contour>
      <point x="213" y="735" type="move" name="top"/>
    </contour>
  </outline>
</glyph>
<glyph name="J" format="1">
  <advance width="281"/>
  <unicode hex="004A"/>
    <anchor name="top" x="140" y="735"/>
  <outline>
    <contour>
      <point x="240" y="139" type="line" smooth="yes"/>
      <point x="240" y="88"/>
      <point x="208" y="23"/>
      <point x="184" y="3" type="qcurve" smooth="yes"/>
      <point x="156" y="-20"/>
      <point x="91" y="-36"/>
      <point x="63" y="-37" type="qcurve"/>
      <point x="27" y="57" type="line"/>
      <point x="80" y="57"/>
      <point x="133" y="107"/>
      <point x="133" y="156" type="qcurve" smooth="yes"/>
      <point x="133" y="591" type="line"/>
      <point x="72" y="593" type="line"/>
      <point x="72" y="698" type="line"/>
      <point x="240" y="698" type="line"/>
    </contour>
    <contour>
      <point x="140" y="735" type="move" name="top"/>
    </contour>
  </outline>
</glyph>
<glyph name="O" format="1">
  <advance width="493"/>
  <unicode hex="004F"/>
    <anchor name="top" x="246" y="735"/>
    <anchor name="tonos" x="82" y="700"/>
  <outline>
    <contour>
      <point x="36" y="506" type="line" smooth="yes"/>
      <point x="36" y="608"/>
      <point x="149" y="715"/>
      <point x="248" y="715" type="qcurve" smooth="yes"/>
      <point x="347" y="715"/>
      <point x="456" y="603"/>
      <point x="456" y="505" type="qcurve" smooth="yes"/>
      <point x="456" y="185" type="line" smooth="yes"/>
      <point x="456" y="124"/>
      <point x="404" y="36"/>
      <point x="310" y="-11"/>
      <point x="247" y="-11" type="qcurve" smooth="yes"/>
      <point x="188" y="-11"/>
      <point x="92" y="33"/>
      <point x="36" y="121"/>
      <point x="36" y="185" type="qcurve" smooth="yes"/>
    </contour>
    <contour>
      <point x="146" y="204" type="line" smooth="yes"/>
      <point x="146" y="172"/>
      <point x="168" y="126"/>
      <point x="213" y="101"/>
      <point x="246" y="101" type="qcurve" smooth="yes"/>
      <point x="278" y="101"/>
      <point x="322" y="127"/>
      <point x="346" y="175"/>
      <point x="346" y="206" type="qcurve" smooth="yes"/>
      <point x="346" y="469" type="line" smooth="yes"/>
      <point x="346" y="533"/>
      <point x="304" y="598"/>
      <point x="246" y="598" type="qcurve" smooth="yes"/>
      <point x="194" y="598"/>
      <point x="146" y="535"/>
      <point x="146" y="470" type="qcurve" smooth="yes"/>
    </contour>
    <contour>
      <point x="246" y="735" type="move" name="top"/>
    </contour>
    <contour>
      <point x="82" y="700" type="move" name="tonos"/>
    </contour>
  </outline>
</glyph>
<glyph name="P" format="1">
  <advance width="507"/>
  <unicode hex="0050"/>
  <outline>
    <contour>
      <point x="258" y="698" type="line" smooth="yes"/>
      <point x="297" y="698"/>
      <point x="375" y="676"/>
      <point x="438" y="621"/>
      <point x="476" y="525"/>
      <point x="476" y="451" type="qcurve" smooth="yes"/>
      <point x="476" y="370"/>
      <point x="439" y="269"/>
      <point x="376" y="215"/>
      <point x="298" y="195"/>
      <point x="258" y="195" type="qcurve"/>
      <point x="256" y="195"/>
      <point x="223" y="195"/>
      <point x="182" y="195"/>
      <point x="151" y="195"/>
      <point x="151" y="195" type="qcurve"/>
      <point x="151" y="0" type="line"/>
      <point x="41" y="0" type="line"/>
      <point x="41" y="698" type="line"/>
    </contour>
    <contour>
      <point x="151" y="300" type="line"/>
      <point x="151" y="300"/>
      <point x="182" y="300"/>
      <point x="215" y="300"/>
      <point x="217" y="300" type="qcurve"/>
      <point x="269" y="300"/>
      <point x="334" y="320"/>
      <point x="365" y="384"/>
      <point x="365" y="451" type="qcurve" smooth="yes"/>
      <point x="365" y="514"/>
      <point x="334" y="572"/>
      <point x="268" y="588"/>
      <point x="217" y="588" type="qcurve" smooth="yes"/>
      <point x="151" y="588" type="line"/>
    </contour>
  </outline>
</glyph>
<glyph name="S" format="1">
  <advance width="544"/>
  <unicode hex="0053"/>
    <anchor name="bottom" x="272" y="0"/>
    <anchor name="top" x="272" y="735"/>
  <outline>
    <contour>
      <point x="417" y="574" type="line"/>
      <point x="377" y="593"/>
      <point x="333" y="606"/>
      <point x="288" y="606" type="curve" smooth="yes"/>
      <point x="244" y="606"/>
      <point x="175" y="589"/>
      <point x="175" y="535" type="curve" smooth="yes"/>
      <point x="175" y="496"/>
      <point x="208" y="478"/>
      <point x="247" y="457" type="curve" smooth="yes"/>
      <point x="289" y="435"/>
      <point x="342" y="414"/>
      <point x="385" y="389" type="curve" smooth="yes"/>
      <point x="457" y="348"/>
      <point x="515" y="296"/>
      <point x="515" y="198" type="curve" smooth="yes"/>
      <point x="515" y="45"/>
      <point x="391" y="-12"/>
      <point x="264" y="-12" type="curve" smooth="yes"/>
      <point x="177" y="-12"/>
      <point x="91" y="28"/>
      <point x="35" y="93" type="curve"/>
      <point x="96" y="167" type="line"/>
      <point x="140" y="121"/>
      <point x="202" y="92"/>
      <point x="266" y="92" type="curve" smooth="yes"/>
      <point x="330" y="92"/>
      <point x="396" y="125"/>
      <point x="396" y="197" type="curve" smooth="yes"/>
      <point x="396" y="248"/>
      <point x="359" y="273"/>
      <point x="314" y="299" type="curve" smooth="yes"/>
      <point x="277" y="321"/>
      <point x="232" y="339"/>
      <point x="192" y="360" type="curve" smooth="yes"/>
      <point x="123" y="396"/>
      <point x="62" y="445"/>
      <point x="62" y="534" type="curve" smooth="yes"/>
      <point x="62" y="662"/>
      <point x="181" y="708"/>
      <point x="290" y="708" type="curve" smooth="yes"/>
      <point x="345" y="708"/>
      <point x="401" y="697"/>
      <point x="450" y="671" type="curve"/>
    </contour>
    <contour>
      <point x="272" y="0" type="move" name="bottom"/>
    </contour>
    <contour>
      <point x="272" y="735" type="move" name="top"/>
    </contour>
  </outline>
</glyph>
<glyph name="U" format="1">
  <advance width="499"/>
  <unicode hex="0055"/>
    <anchor name="top" x="249" y="735"/>
    <anchor name="ogonek" x="249" y="0"/>
  <outline>
    <contour>
      <point x="459" y="185" type="line" smooth="yes"/>
      <point x="459" y="84"/>
      <point x="397" y="36" type="qcurve" smooth="yes"/>
      <point x="336" y="-11"/>
      <point x="250" y="-11" type="qcurve" smooth="yes"/>
      <point x="165" y="-11"/>
      <point x="101" y="36" type="qcurve"/>
      <point x="39" y="86"/>
      <point x="39" y="185" type="qcurve" smooth="yes"/>
      <point x="39" y="698" type="line"/>
      <point x="149" y="698" type="line"/>
      <point x="149" y="204" type="line" smooth="yes"/>
      <point x="149" y="149"/>
      <point x="181" y="122" type="qcurve" smooth="yes"/>
      <point x="204" y="101"/>
      <point x="249" y="101" type="qcurve" smooth="yes"/>
      <point x="271" y="101"/>
      <point x="306" y="114"/>
      <point x="319" y="127" type="qcurve" smooth="yes"/>
      <point x="333" y="140"/>
      <point x="349" y="181"/>
      <point x="349" y="206" type="qcurve" smooth="yes"/>
      <point x="349" y="698" type="line"/>
      <point x="459" y="698" type="line"/>
    </contour>
    <contour>
      <point x="249" y="735" type="move" name="top"/>
    </contour>
    <contour>
      <point x="249" y="0" type="move" name="ogonek"/>
    </contour>
  </outline>
</glyph>
<glyph name="grave" format="1">
  <advance width="266"/>
  <unicode hex="0060"/>
  <outline>
    <contour>
      <point x="131" y="704" type="qcurve"/>
      <point x="161" y="587" type="line"/>
      <point x="117" y="587" type="line"/>
      <point x="59" y="663" type="line"/>
      <point x="46" y="677"/>
      <point x="43" y="722"/>
      <point x="65" y="734" type="qcurve" smooth="yes"/>
      <point x="85" y="745"/>
      <point x="123" y="724"/>
    </contour>
  </outline>
</glyph>
<glyph name="a" format="1">
  <advance width="450"/>
  <unicode hex="0061"/>
    <anchor name="top" x="225" y="545"/>
    <anchor name="ogonek" x="225" y="0"/>
  <outline>
    <contour>
      <point x="304" y="334" type="qcurve"/>
      <point x="304" y="366"/>
      <point x="294" y="398"/>
      <point x="285" y="406" type="qcurve" smooth="yes"/>
      <point x="272" y="418"/>
      <point x="229" y="433"/>
      <point x="197" y="433" type="qcurve"/>
      <point x="206" y="508" type="line"/>
      <point x="246" y="508"/>
      <point x="334" y="494"/>
      <point x="367" y="464" type="qcurve" smooth="yes"/>
      <point x="385" y="448"/>
      <point x="414" y="375"/>
      <point x="414" y="306" type="qcurve" smooth="yes"/>
      <point x="414" y="272"/>
      <point x="414" y="191"/>
      <point x="414" y="109"/>
      <point x="414" y="41"/>
      <point x="414" y="0"/>
      <point x="414" y="0" type="qcurve"/>
      <point x="393" y="-3"/>
      <point x="351" y="-7"/>
      <point x="306" y="-10"/>
      <point x="259" y="-11"/>
      <point x="234" y="-11" type="qcurve" smooth="yes"/>
      <point x="177" y="-11"/>
      <point x="86" y="19"/>
      <point x="31" y="92"/>
      <point x="29" y="155" type="qcurve"/>
      <point x="29" y="155"/>
      <point x="29" y="184"/>
      <point x="29" y="223"/>
      <point x="29" y="252"/>
      <point x="29" y="252" type="qcurve"/>
      <point x="29" y="290"/>
      <point x="50" y="346"/>
      <point x="88" y="382"/>
      <point x="137" y="400"/>
      <point x="164" y="400" type="qcurve" smooth="yes"/>
      <point x="199" y="400"/>
      <point x="281" y="367"/>
    </contour>
    <contour>
      <point x="304" y="252" type="qcurve"/>
      <point x="298" y="256"/>
      <point x="264" y="273"/>
      <point x="218" y="287"/>
      <point x="195" y="287" type="qcurve" smooth="yes"/>
      <point x="180" y="287"/>
      <point x="155" y="278"/>
      <point x="140" y="257"/>
      <point x="140" y="238" type="qcurve" smooth="yes"/>
      <point x="140" y="223"/>
      <point x="140" y="186"/>
      <point x="140" y="173" type="qcurve" smooth="yes"/>
      <point x="140" y="154"/>
      <point x="147" y="124"/>
      <point x="168" y="102"/>
      <point x="209" y="90"/>
      <point x="243" y="90" type="qcurve" smooth="yes"/>
      <point x="249" y="90"/>
      <point x="270" y="91"/>
      <point x="290" y="93"/>
      <point x="304" y="94"/>
      <point x="304" y="94" type="qcurve"/>
      <point x="304" y="94"/>
      <point x="304" y="117"/>
      <point x="304" y="153"/>
      <point x="304" y="193"/>
      <point x="304" y="229"/>
    </contour>
    <contour>
      <point x="225" y="545" type="move" name="top"/>
    </contour>
    <contour>
      <point x="225" y="0" type="move" name="ogonek"/>
    </contour>
  </outline>
</glyph>
<glyph name="d" format="1">
  <advance width="459"/>
  <unicode hex="0064"/>
    <anchor name="top" x="229" y="735"/>
  <outline>
    <contour>
      <point x="416" y="0" type="line"/>
      <point x="396" y="-3"/>
      <point x="354" y="-7"/>
      <point x="310" y="-10"/>
      <point x="263" y="-11"/>
      <point x="239" y="-11" type="qcurve" smooth="yes"/>
      <point x="183" y="-11"/>
      <point x="89" y="23"/>
      <point x="33" y="96"/>
      <point x="31" y="155" type="qcurve"/>
      <point x="31" y="359" type="line" smooth="yes"/>
      <point x="31" y="410"/>
      <point x="75" y="476"/>
      <point x="143" y="508"/>
      <point x="180" y="508" type="qcurve" smooth="yes"/>
      <point x="215" y="508"/>
      <point x="274" y="496"/>
      <point x="306" y="482" type="qcurve"/>
      <point x="306" y="698" type="line"/>
      <point x="416" y="698" type="line"/>
    </contour>
    <contour>
      <point x="306" y="370" type="line"/>
      <point x="297" y="375"/>
      <point x="247" y="394"/>
      <point x="212" y="394" type="qcurve" smooth="yes"/>
      <point x="197" y="394"/>
      <point x="164" y="385"/>
      <point x="142" y="364"/>
      <point x="142" y="345" type="qcurve" smooth="yes"/>
      <point x="142" y="174" type="line" smooth="yes"/>
      <point x="142" y="155"/>
      <point x="150" y="124"/>
      <point x="171" y="103"/>
      <point x="212" y="91"/>
      <point x="246" y="91" type="qcurve" smooth="yes"/>
      <point x="252" y="91"/>
      <point x="272" y="92"/>
      <point x="292" y="93"/>
      <point x="306" y="94"/>
      <point x="306" y="94" type="qcurve"/>
    </contour>
    <contour>
      <point x="229" y="735" type="move" name="top"/>
    </contour>
  </outline>
</glyph>
<glyph name="g" format="1">
  <advance width="442"/>
  <unicode hex="0067"/>
    <anchor name="top" x="221" y="545"/>
  <outline>
    <contour>
      <point x="402" y="-64" type="line" smooth="yes"/>
      <point x="402" y="-143"/>
      <point x="317" y="-210"/>
      <point x="246" y="-210" type="qcurve"/>
      <point x="219" y="-124" type="line"/>
      <point x="236" y="-124"/>
      <point x="269" y="-111"/>
      <point x="292" y="-79"/>
      <point x="292" y="-53" type="qcurve" smooth="yes"/>
      <point x="292" y="12" type="line"/>
      <point x="281" y="5"/>
      <point x="251" y="-6"/>
      <point x="219" y="-12"/>
      <point x="202" y="-12" type="qcurve" smooth="yes"/>
      <point x="119" y="-12"/>
      <point x="32" y="84"/>
      <point x="32" y="176" type="qcurve" smooth="yes"/>
      <point x="32" y="345" type="line" smooth="yes"/>
      <point x="32" y="421"/>
      <point x="113" y="509"/>
      <point x="190" y="509" type="qcurve" smooth="yes"/>
      <point x="209" y="509"/>
      <point x="244" y="502"/>
      <point x="277" y="488"/>
      <point x="292" y="477" type="qcurve"/>
      <point x="292" y="499" type="line"/>
      <point x="402" y="499" type="line"/>
    </contour>
    <contour>
      <point x="292" y="386" type="line"/>
      <point x="292" y="386"/>
      <point x="268" y="398"/>
      <point x="233" y="410"/>
      <point x="216" y="410" type="qcurve" smooth="yes"/>
      <point x="197" y="410"/>
      <point x="163" y="397"/>
      <point x="142" y="365"/>
      <point x="142" y="337" type="qcurve" smooth="yes"/>
      <point x="142" y="159" type="line" smooth="yes"/>
      <point x="142" y="130"/>
      <point x="176" y="88"/>
      <point x="211" y="88" type="qcurve"/>
      <point x="239" y="90"/>
      <point x="274" y="106"/>
      <point x="292" y="128"/>
      <point x="292" y="139" type="qcurve" smooth="yes"/>
    </contour>
    <contour>
      <point x="221" y="545" type="move" name="top"/>
    </contour>
  </outline>
</glyph>
<glyph name="q" format="1">
  <advance width="442"/>
  <unicode hex="0071"/>
  <outline>
    <contour>
      <point x="292" y="13" type="line"/>
      <point x="280" y="6"/>
      <point x="250" y="-5"/>
      <point x="218" y="-11"/>
      <point x="202" y="-11" type="qcurve" smooth="yes"/>
      <point x="119" y="-11"/>
      <point x="32" y="85"/>
      <point x="32" y="176" type="qcurve" smooth="yes"/>
      <point x="32" y="345" type="line" smooth="yes"/>
      <point x="32" y="422"/>
      <point x="114" y="510"/>
      <point x="192" y="510" type="qcurve" smooth="yes"/>
      <point x="210" y="510"/>
      <point x="244" y="502"/>
      <point x="277" y="488"/>
      <point x="292" y="477" type="qcurve"/>
      <point x="292" y="499" type="line"/>
      <point x="402" y="499" type="line"/>
      <point x="402" y="-212" type="line"/>
      <point x="292" y="-198" type="line"/>
    </contour>
    <contour>
      <point x="292" y="387" type="line"/>
      <point x="292" y="387"/>
      <point x="268" y="399"/>
      <point x="233" y="411"/>
      <point x="215" y="411" type="qcurve" smooth="yes"/>
      <point x="197" y="411"/>
      <point x="164" y="398"/>
      <point x="142" y="366"/>
      <point x="142" y="338" type="qcurve" smooth="yes"/>
      <point x="142" y="161" type="line" smooth="yes"/>
      <point x="142" y="132"/>
      <point x="174" y="89"/>
      <point x="211" y="89" type="qcurve"/>
      <point x="232" y="90"/>
      <point x="262" y="100"/>
      <point x="282" y="114"/>
      <point x="292" y="131"/>
      <point x="292" y="140" type="qcurve" smooth="yes"/>
    </contour>
  </outline>
</glyph>
<glyph name="r" format="1">
  <advance width="373"/>
  <unicode hex="0072"/>
    <anchor name="top" x="186" y="545"/>
    <anchor name="bottom" x="186" y="0"/>
  <outline>
    <contour>
      <point x="331" y="409" type="line"/>
      <point x="331" y="409"/>
      <point x="306" y="416"/>
      <point x="279" y="416" type="qcurve" smooth="yes"/>
      <point x="257" y="416"/>
      <point x="213" y="410"/>
      <point x="170" y="398"/>
      <point x="149" y="388" type="qcurve"/>
      <point x="149" y="0" type="line"/>
      <point x="39" y="0" type="line"/>
      <point x="39" y="499" type="line"/>
      <point x="149" y="499" type="line"/>
      <point x="149" y="479" type="line"/>
      <point x="174" y="496"/>
      <point x="236" y="514"/>
      <point x="268" y="514" type="qcurve" smooth="yes"/>
      <point x="291" y="514"/>
      <point x="331" y="505"/>
      <point x="347" y="499" type="qcurve"/>
    </contour>
    <contour>
      <point x="186" y="545" type="move" name="top"/>
    </contour>
    <contour>
      <point x="186" y="0" type="move" name="bottom"/>
    </contour>
  </outline>
</glyph>
<glyph name="y" format="1">
  <advance width="482"/>
  <unicode hex="0079"/>
    <anchor name="top" x="241" y="545"/>
  <outline>
    <contour>
      <point x="453" y="433" type="line"/>
      <point x="424" y="427"/>
      <point x="406" y="387"/>
      <point x="406" y="362" type="qcurve" smooth="yes"/>
      <point x="406" y="-59" type="line" smooth="yes"/>
      <point x="406" y="-102"/>
      <point x="383" y="-162"/>
      <point x="358" y="-179" type="qcurve" smooth="yes"/>
      <point x="338" y="-194"/>
      <point x="280" y="-213"/>
      <point x="255" y="-213" type="qcurve"/>
      <point x="226" y="-124" type="line"/>
      <point x="239" y="-124"/>
      <point x="266" y="-111"/>
      <point x="276" y="-101" type="qcurve" smooth="yes"/>
      <point x="296" y="-83"/>
      <point x="296" y="-48" type="qcurve" smooth="yes"/>
      <point x="296" y="28" type="line"/>
      <point x="286" y="17"/>
      <point x="228" y="-6"/>
      <point x="196" y="-6" type="qcurve" smooth="yes"/>
      <point x="166" y="-6"/>
      <point x="109" y="10"/>
      <point x="63" y="46"/>
      <point x="36" y="110"/>
      <point x="36" y="158" type="qcurve" smooth="yes"/>
      <point x="36" y="501" type="line"/>
      <point x="147" y="501" type="line"/>
      <point x="147" y="161" type="line" smooth="yes"/>
      <point x="147" y="142"/>
      <point x="164" y="112"/>
      <point x="196" y="94"/>
      <point x="216" y="94" type="qcurve" smooth="yes"/>
      <point x="239" y="94"/>
      <point x="275" y="116"/>
      <point x="296" y="153"/>
      <point x="296" y="176" type="qcurve" smooth="yes"/>
      <point x="296" y="392" type="line" smooth="yes"/>
      <point x="296" y="420"/>
      <point x="320" y="474"/>
      <point x="374" y="510"/>
      <point x="419" y="510" type="qcurve"/>
    </contour>
    <contour>
      <point x="241" y="545" type="move" name="top"/>
    </contour>
  </outline>
</glyph>
<glyph name="z" format="1">
  <advance width="434"/>
  <unicode hex="007A"/>
    <anchor name="top" x="217" y="545"/>
  <outline>
    <contour>
      <point x="391" y="499" type="line"/>
      <point x="391" y="400" type="line"/>
      <point x="181" y="105" type="line"/>
      <point x="401" y="105" type="line"/>
      <point x="401" y="0" type="line"/>
      <point x="33" y="0" type="line"/>
      <point x="33" y="105" type="line"/>
      <point x="242" y="397" type="line"/>
      <point x="42" y="397" type="line"/>
      <point x="42" y="499" type="line"/>
    </contour>
    <contour>
      <point x="217" y="545" type="move" name="top"/>
    </contour>
  </outline>
</glyph>
<glyph name="braceright" format="1">
  <advance width="297"/>
  <unicode hex="007D"/>
  <outline>
    <contour>
      <point x="78" y="821" type="line"/>
      <point x="80" y="821"/>
      <point x="113" y="805"/>
      <point x="156" y="765"/>
      <point x="188" y="689"/>
      <point x="188" y="629" type="qcurve" smooth="yes"/>
      <point x="188" y="516" type="line" smooth="yes"/>
      <point x="188" y="488"/>
      <point x="196" y="435"/>
      <point x="225" y="385"/>
      <point x="256" y="360" type="qcurve" smooth="yes"/>
      <point x="267" y="352" type="line"/>
      <point x="257" y="345" type="line" smooth="yes"/>
      <point x="226" y="321"/>
      <point x="196" y="270"/>
      <point x="188" y="217"/>
      <point x="188" y="189" type="qcurve" smooth="yes"/>
      <point x="188" y="76" type="line" smooth="yes"/>
      <point x="188" y="16"/>
      <point x="156" y="-60"/>
      <point x="114" y="-101"/>
      <point x="80" y="-117"/>
      <point x="78" y="-117" type="qcurve"/>
      <point x="27" y="-34" type="line"/>
      <point x="37" y="-29"/>
      <point x="55" y="-14"/>
      <point x="70" y="10"/>
      <point x="78" y="48"/>
      <point x="78" y="76" type="qcurve" smooth="yes"/>
      <point x="78" y="189" type="line" smooth="yes"/>
      <point x="78" y="218"/>
      <point x="85" y="273"/>
      <point x="113" y="327"/>
      <point x="144" y="352" type="qcurve"/>
      <point x="113" y="378"/>
      <point x="85" y="432"/>
      <point x="78" y="488"/>
      <point x="78" y="516" type="qcurve" smooth="yes"/>
      <point x="78" y="629" type="line" smooth="yes"/>
      <point x="78" y="657"/>
      <point x="70" y="695"/>
      <point x="55" y="719"/>
      <point x="37" y="734"/>
      <point x="27" y="739" type="qcurve"/>
    </contour>
  </outline>
</glyph>
<glyph name="asciitilde" format="1">
  <advance width="266"/>
  <unicode hex="007E"/>
  <outline>
    <contour>
      <point x="291" y="299" type="line"/>
      <point x="272" y="282"/>
      <point x="224" y="256"/>
      <point x="194" y="256" type="qcurve"/>
      <point x="173" y="257"/>
      <point x="133" y="271"/>
      <point x="95" y="286"/>
      <point x="74" y="286" type="qcurve" smooth="yes"/>
      <point x="59" y="286"/>
      <point x="26" y="275"/>
      <point x="8" y="263" type="qcurve"/>
      <point x="-25" y="319" type="line"/>
      <point x="-5" y="336"/>
      <point x="42" y="360"/>
      <point x="70" y="360" type="qcurve" smooth="yes"/>
      <point x="93" y="360"/>
      <point x="134" y="346"/>
      <point x="174" y="331"/>
      <point x="195" y="331" type="qcurve" smooth="yes"/>
      <point x="209" y="331"/>
      <point x="240" y="342"/>
      <point x="258" y="355" type="qcurve"/>
    </contour>
  </outline>
</glyph>
<glyph name="ordfeminine" format="1">
  <advance width="329"/>
  <unicode hex="00AA"/>
  <outline>
    <contour>
      <point x="295" y="391" type="qcurve"/>
      <point x="262" y="386"/>
      <point x="200" y="378"/>
      <point x="174" y="378" type="qcurve" smooth="yes"/>
      <point x="141" y="378"/>
      <point x="87" y="391"/>
      <point x="47" y="421"/>
      <point x="26" y="476"/>
      <point x="26" y="518" type="qcurve"/>
      <point x="27" y="550"/>
      <point x="51" y="600"/>
      <point x="98" y="631"/>
      <point x="131" y="631" type="qcurve" smooth="yes"/>
      <point x="149" y="631"/>
      <point x="188" y="620"/>
      <point x="207" y="609" type="qcurve"/>
      <point x="207" y="628"/>
      <point x="196" y="650"/>
      <point x="161" y="650" type="qcurve" smooth="yes"/>
      <point x="153" y="650"/>
      <point x="132" y="649"/>
      <point x="119" y="647" type="qcurve"/>
      <point x="129" y="708" type="line"/>
      <point x="156" y="712"/>
      <point x="226" y="707"/>
      <point x="251" y="687" type="qcurve" smooth="yes"/>
      <point x="276" y="668"/>
      <point x="295" y="601"/>
      <point x="295" y="554" type="qcurve"/>
      <point x="295" y="554"/>
      <point x="295" y="521"/>
      <point x="295" y="472"/>
      <point x="295" y="423"/>
      <point x="295" y="390"/>
    </contour>
    <contour>
      <point x="207" y="533" type="line"/>
      <point x="195" y="541"/>
      <point x="162" y="555"/>
      <point x="146" y="555" type="qcurve" smooth="yes"/>
      <point x="133" y="555"/>
      <point x="117" y="542"/>
      <point x="109" y="520"/>
      <point x="109" y="507" type="qcurve"/>
      <point x="110" y="476"/>
      <point x="149" y="458"/>
      <point x="171" y="458" type="qcurve" smooth="yes"/>
      <point x="177" y="458"/>
      <point x="186" y="459"/>
      <point x="195" y="459"/>
      <point x="203" y="460"/>
      <point x="207" y="460" type="qcurve"/>
    </contour>
  </outline>
</glyph>
<glyph name="degree" format="1">
  <advance width="350"/>
  <unicode hex="00B0"/>
  <outline>
    <contour>
      <point x="320" y="564" type="qcurve" smooth="yes"/>
      <point x="320" y="524"/>
      <point x="281" y="458"/>
      <point x="215" y="419"/>
      <point x="174" y="419" type="qcurve" smooth="yes"/>
      <point x="134" y="419"/>
      <point x="67" y="458"/>
      <point x="28" y="524"/>
      <point x="28" y="564" type="qcurve" smooth="yes"/>
      <point x="28" y="605"/>
      <point x="67" y="671"/>
      <point x="134" y="710"/>
      <point x="174" y="710" type="qcurve" smooth="yes"/>
      <point x="215" y="710"/>
      <point x="281" y="671"/>
      <point x="320" y="605"/>
    </contour>
    <contour>
      <point x="174" y="617" type="qcurve" smooth="yes"/>
      <point x="160" y="617"/>
      <point x="136" y="603"/>
      <point x="122" y="579"/>
      <point x="122" y="564" type="qcurve" smooth="yes"/>
      <point x="122" y="550"/>
      <point x="136" y="526"/>
      <point x="160" y="512"/>
      <point x="174" y="512" type="qcurve" smooth="yes"/>
      <point x="188" y="512"/>
      <point x="212" y="526"/>
      <point x="227" y="550"/>
      <point x="227" y="564" type="qcurve" smooth="yes"/>
      <point x="227" y="579"/>
      <point x="212" y="603"/>
      <point x="188" y="617"/>
    </contour>
  </outline>
</glyph>
<glyph name="cedilla" format="1">
  <advance width="266"/>
  <unicode hex="00B8"/>
  <outline>
    <contour>
      <point x="172" y="0" type="line"/>
      <point x="148" y="-42" type="line"/>
      <point x="162" y="-41"/>
      <point x="172" y="-40"/>
      <point x="175" y="-40" type="qcurve" smooth="yes"/>
      <point x="206" y="-40"/>
      <point x="248" y="-67"/>
      <point x="270" y="-109"/>
      <point x="270" y="-133" type="qcurve" smooth="yes"/>
      <point x="270" y="-178"/>
      <point x="215" y="-235"/>
      <point x="153" y="-235" type="qcurve" smooth="yes"/>
      <point x="129" y="-235"/>
      <point x="83" y="-229"/>
      <point x="52" y="-223"/>
      <point x="51" y="-223" type="qcurve"/>
      <point x="54" y="-209"/>
      <point x="57" y="-191"/>
      <point x="62" y="-172"/>
      <point x="64" y="-158" type="qcurve"/>
      <point x="65" y="-158"/>
      <point x="97" y="-163"/>
      <point x="143" y="-168"/>
      <point x="164" y="-168" type="qcurve" smooth="yes"/>
      <point x="178" y="-168"/>
      <point x="195" y="-160"/>
      <point x="203" y="-146"/>
      <point x="203" y="-138" type="qcurve" smooth="yes"/>
      <point x="203" y="-124"/>
      <point x="187" y="-107"/>
      <point x="168" y="-107" type="qcurve" smooth="yes"/>
      <point x="153" y="-107"/>
      <point x="109" y="-112"/>
      <point x="78" y="-114" type="qcurve"/>
      <point x="60" y="-75" type="line"/>
      <point x="106" y="0" type="line"/>
    </contour>
  </outline>
</glyph>
<glyph name="questiondown" format="1">
  <advance width="428"/>
  <unicode hex="00BF"/>
  <outline>
    <contour>
      <point x="397" y="161" type="line"/>
      <point x="397" y="110"/>
      <point x="353" y="30"/>
      <point x="272" y="-15"/>
      <point x="213" y="-15" type="qcurve"/>
      <point x="167" y="-12"/>
      <point x="83" y="32"/>
      <point x="29" y="112"/>
      <point x="29" y="170" type="qcurve" smooth="yes"/>
      <point x="29" y="220"/>
      <point x="75" y="291"/>
      <point x="107" y="328" type="qcurve" smooth="yes"/>
      <point x="127" y="350"/>
      <point x="153" y="384"/>
      <point x="168" y="417"/>
      <point x="176" y="456"/>
      <point x="177" y="483" type="qcurve"/>
      <point x="177" y="488"/>
      <point x="177" y="501"/>
      <point x="177" y="536"/>
      <point x="177" y="573" type="qcurve"/>
      <point x="286" y="573" type="line"/>
      <point x="286" y="480" type="line" smooth="yes"/>
      <point x="286" y="448"/>
      <point x="273" y="394"/>
      <point x="250" y="348"/>
      <point x="223" y="308"/>
      <point x="209" y="290" type="qcurve" smooth="yes"/>
      <point x="192" y="268"/>
      <point x="160" y="229"/>
      <point x="140" y="189"/>
      <point x="140" y="167" type="qcurve" smooth="yes"/>
      <point x="140" y="142"/>
      <point x="161" y="108"/>
      <point x="195" y="90"/>
      <point x="212" y="89" type="qcurve"/>
      <point x="233" y="89"/>
      <point x="266" y="106"/>
      <point x="285" y="139"/>
      <point x="286" y="161" type="qcurve"/>
    </contour>
    <contour>
      <point x="231" y="708" type="qcurve" smooth="yes"/>
      <point x="256" y="708"/>
      <point x="290" y="674"/>
      <point x="290" y="649" type="qcurve" smooth="yes"/>
      <point x="290" y="624"/>
      <point x="256" y="588"/>
      <point x="231" y="588" type="qcurve" smooth="yes"/>
      <point x="206" y="588"/>
      <point x="172" y="624"/>
      <point x="172" y="649" type="qcurve" smooth="yes"/>
      <point x="172" y="674"/>
      <point x="206" y="708"/>
    </contour>
  </outline>
</glyph>
<glyph name="ae" format="1">
  <advance width="698"/>
  <unicode hex="00E6"/>
  <outline>
    <contour>
      <point x="418" y="150" type="line" smooth="yes"/>
      <point x="418" y="138"/>
      <point x="425" y="116"/>
      <point x="439" y="100"/>
      <point x="460" y="91"/>
      <point x="475" y="91" type="qcurve" smooth="yes"/>
      <point x="501" y="91"/>
      <point x="569" y="115"/>
      <point x="601" y="131" type="qcurve"/>
      <point x="641" y="36" type="line"/>
      <point x="607" y="14"/>
      <point x="532" y="-12"/>
      <point x="487" y="-12" type="qcurve" smooth="yes"/>
      <point x="462" y="-12"/>
      <point x="412" y="3"/>
      <point x="401" y="13" type="qcurve"/>
      <point x="401" y="-2" type="line"/>
      <point x="385" y="-4"/>
      <point x="354" y="-7"/>
      <point x="321" y="-9"/>
      <point x="287" y="-10"/>
      <point x="252" y="-11"/>
      <point x="234" y="-11" type="qcurve" smooth="yes"/>
      <point x="178" y="-11"/>
      <point x="86" y="19"/>
      <point x="31" y="92"/>
      <point x="28" y="155" type="qcurve"/>
      <point x="28" y="252" type="line" smooth="yes"/>
      <point x="28" y="290"/>
      <point x="49" y="346"/>
      <point x="87" y="382"/>
      <point x="136" y="400"/>
      <point x="163" y="400" type="qcurve" smooth="yes"/>
      <point x="198" y="400"/>
      <point x="280" y="367"/>
      <point x="303" y="334" type="qcurve"/>
      <point x="303" y="371"/>
      <point x="282" y="414"/>
      <point x="235" y="432"/>
      <point x="196" y="433" type="qcurve"/>
      <point x="199" y="453"/>
      <point x="203" y="489"/>
      <point x="205" y="508" type="qcurve"/>
      <point x="231" y="508"/>
      <point x="285" y="503"/>
      <point x="338" y="487"/>
      <point x="360" y="469" type="qcurve"/>
      <point x="389" y="490"/>
      <point x="453" y="510"/>
      <point x="490" y="510" type="qcurve" smooth="yes"/>
      <point x="539" y="510"/>
      <point x="619" y="471"/>
      <point x="666" y="397"/>
      <point x="666" y="343" type="qcurve" smooth="yes"/>
      <point x="666" y="187" type="line"/>
      <point x="418" y="174" type="line"/>
    </contour>
    <contour>
      <point x="303" y="252" type="line"/>
      <point x="297" y="256"/>
      <point x="264" y="273"/>
      <point x="218" y="287"/>
      <point x="194" y="287" type="qcurve" smooth="yes"/>
      <point x="179" y="287"/>
      <point x="154" y="278"/>
      <point x="139" y="257"/>
      <point x="139" y="238" type="qcurve" smooth="yes"/>
      <point x="139" y="173" type="line" smooth="yes"/>
      <point x="139" y="154"/>
      <point x="146" y="124"/>
      <point x="168" y="102"/>
      <point x="209" y="90"/>
      <point x="243" y="90" type="qcurve" smooth="yes"/>
      <point x="249" y="90"/>
      <point x="269" y="91"/>
      <point x="289" y="93"/>
      <point x="303" y="94"/>
      <point x="303" y="94" type="qcurve"/>
    </contour>
    <contour>
      <point x="556" y="323" type="line" smooth="yes"/>
      <point x="556" y="340"/>
      <point x="550" y="369"/>
      <point x="536" y="392"/>
      <point x="510" y="405"/>
      <point x="489" y="405" type="qcurve"/>
      <point x="471" y="404"/>
      <point x="444" y="395"/>
      <point x="426" y="375"/>
      <point x="418" y="346"/>
      <point x="418" y="326" type="qcurve" smooth="yes"/>
      <point x="418" y="275" type="line"/>
      <point x="556" y="284" type="line"/>
    </contour>
  </outline>
</glyph>
<glyph name="IJ" format="1">
  <advance width="537"/>
  <unicode hex="0132"/>
  <outline>
    <contour>
      <point x="507" y="698" type="line"/>
      <point x="507" y="185" type="line" smooth="yes"/>
      <point x="507" y="84"/>
      <point x="445" y="36" type="qcurve" smooth="yes"/>
      <point x="384" y="-11"/>
      <point x="298" y="-11" type="qcurve" smooth="yes"/>
      <point x="255" y="-11"/>
      <point x="181" y="13"/>
      <point x="149" y="36" type="qcurve"/>
      <point x="119" y="60"/>
      <point x="87" y="135"/>
      <point x="87" y="185" type="qcurve" smooth="yes"/>
      <point x="87" y="223" type="line"/>
      <point x="197" y="223" type="line"/>
      <point x="197" y="204" type="line" smooth="yes"/>
      <point x="197" y="177"/>
      <point x="213" y="136"/>
      <point x="229" y="122" type="qcurve" smooth="yes"/>
      <point x="240" y="112"/>
      <point x="275" y="101"/>
      <point x="297" y="101" type="qcurve" smooth="yes"/>
      <point x="319" y="101"/>
      <point x="354" y="114"/>
      <point x="367" y="127" type="qcurve" smooth="yes"/>
      <point x="381" y="140"/>
      <point x="397" y="181"/>
      <point x="397" y="206" type="qcurve" smooth="yes"/>
      <point x="397" y="592" type="line"/>
      <point x="338" y="593" type="line"/>
      <point x="338" y="698" type="line"/>
    </contour>
    <contour>
      <point x="197" y="698" type="line"/>
      <point x="197" y="320" type="line"/>
      <point x="87" y="320" type="line"/>
      <point x="87" y="591" type="line"/>
      <point x="23" y="593" type="line"/>
      <point x="23" y="698" type="line"/>
    </contour>
  </outline>
</glyph>
<glyph name="Eng" format="1">
  <advance width="577"/>
  <unicode hex="014A"/>
  <outline>
    <contour>
      <point x="534" y="-59" type="line" smooth="yes"/>
      <point x="534" y="-102"/>
      <point x="508" y="-156"/>
      <point x="488" y="-176" type="qcurve"/>
      <point x="466" y="-195"/>
      <point x="404" y="-213"/>
      <point x="383" y="-213" type="qcurve"/>
      <point x="353" y="-124" type="line"/>
      <point x="370" y="-120"/>
      <point x="394" y="-112"/>
      <point x="404" y="-101" type="qcurve" smooth="yes"/>
      <point x="413" y="-93"/>
      <point x="424" y="-67"/>
      <point x="424" y="-48" type="qcurve" smooth="yes"/>
      <point x="424" y="0" type="line"/>
      <point x="151" y="472" type="line"/>
      <point x="151" y="0" type="line"/>
      <point x="41" y="0" type="line"/>
      <point x="41" y="698" type="line"/>
      <point x="152" y="698" type="line"/>
      <point x="424" y="230" type="line"/>
      <point x="424" y="698" type="line"/>
      <point x="534" y="698" type="line"/>
    </contour>
  </outline>
</glyph>
<glyph name="OE" format="1">
  <advance width="715"/>
  <unicode hex="0152"/>
  <outline>
    <contour>
      <point x="346" y="0" type="line"/>
      <point x="346" y="28" type="line"/>
      <point x="340" y="14"/>
      <point x="305" y="-4"/>
      <point x="262" y="-12"/>
      <point x="244" y="-12" type="qcurve" smooth="yes"/>
      <point x="185" y="-12"/>
      <point x="90" y="32"/>
      <point x="36" y="120"/>
      <point x="36" y="184" type="qcurve" smooth="yes"/>
      <point x="36" y="505" type="line" smooth="yes"/>
      <point x="36" y="608"/>
      <point x="146" y="714"/>
      <point x="245" y="714" type="qcurve" smooth="yes"/>
      <point x="273" y="714"/>
      <point x="334" y="692"/>
      <point x="346" y="675" type="qcurve"/>
      <point x="346" y="698" type="line"/>
      <point x="680" y="698" type="line"/>
      <point x="680" y="588" type="line"/>
      <point x="456" y="588" type="line"/>
      <point x="456" y="413" type="line"/>
      <point x="593" y="413" type="line"/>
      <point x="561" y="308" type="line"/>
      <point x="456" y="308" type="line"/>
      <point x="456" y="100" type="line"/>
      <point x="678" y="100" type="line"/>
      <point x="678" y="0" type="line"/>
    </contour>
    <contour>
      <point x="146" y="204" type="line" smooth="yes"/>
      <point x="146" y="172"/>
      <point x="167" y="125"/>
      <point x="212" y="100"/>
      <point x="246" y="100" type="qcurve" smooth="yes"/>
      <point x="277" y="100"/>
      <point x="322" y="126"/>
      <point x="346" y="174"/>
      <point x="346" y="205" type="qcurve" smooth="yes"/>
      <point x="346" y="468" type="line" smooth="yes"/>
      <point x="346" y="532"/>
      <point x="304" y="595"/>
      <point x="246" y="595" type="qcurve" smooth="yes"/>
      <point x="191" y="595"/>
      <point x="146" y="534"/>
      <point x="146" y="469" type="qcurve" smooth="yes"/>
    </contour>
  </outline>
</glyph>
<glyph name="tbar" format="1">
  <advance width="317"/>
  <unicode hex="0167"/>
  <outline>
    <contour>
      <point x="264" y="235" type="line"/>
      <point x="29" y="235" type="line"/>
      <point x="29" y="326" type="line"/>
      <point x="264" y="326" type="line"/>
    </contour>
    <contour>
      <point x="192" y="132" type="line" smooth="yes"/>
      <point x="192" y="98"/>
      <point x="230" y="75"/>
      <point x="265" y="75" type="qcurve"/>
      <point x="232" y="-13" type="line"/>
      <point x="156" y="-11"/>
      <point x="80" y="61"/>
      <point x="80" y="132" type="qcurve" smooth="yes"/>
      <point x="80" y="698" type="line"/>
      <point x="192" y="698" type="line"/>
      <point x="192" y="499" type="line"/>
      <point x="287" y="499" type="line"/>
      <point x="264" y="398" type="line"/>
      <point x="192" y="398" type="line"/>
    </contour>
  </outline>
</glyph>
<glyph name="dotlessj" format="1">
  <advance width="250"/>
  <unicode hex="0237"/>
    <anchor name="top" x="125" y="735"/>
  <outline>
    <contour>
      <point x="209" y="-61" type="line" smooth="yes"/>
      <point x="209" y="-102"/>
      <point x="184" y="-157"/>
      <point x="163" y="-177" type="qcurve" smooth="yes"/>
      <point x="142" y="-196"/>
      <point x="79" y="-215"/>
      <point x="59" y="-215" type="qcurve"/>
      <point x="29" y="-125" type="line"/>
      <point x="46" y="-121"/>
      <point x="69" y="-112"/>
      <point x="80" y="-102" type="qcurve" smooth="yes"/>
      <point x="99" y="-85"/>
      <point x="99" y="-50" type="qcurve" smooth="yes"/>
      <point x="99" y="400" type="line"/>
      <point x="28" y="410" type="line"/>
      <point x="28" y="499" type="line"/>
      <point x="209" y="499" type="line"/>
    </contour>
    <contour>
      <point x="125" y="735" type="move" name="top"/>
    </contour>
  </outline>
</glyph>
<glyph name="ogonek" format="1">
  <advance width="266"/>
  <unicode hex="02DB"/>
  <outline>
    <contour>
      <point x="183" y="16" type="line"/>
      <point x="183" y="2" type="line"/>
      <point x="101" y="-123" type="line"/>
      <point x="96" y="-132"/>
      <point x="98" y="-151"/>
      <point x="113" y="-159"/>
      <point x="125" y="-154" type="qcurve" smooth="yes"/>
      <point x="136" y="-150"/>
      <point x="170" y="-138"/>
      <point x="204" y="-126"/>
      <point x="228" y="-118"/>
      <point x="228" y="-118" type="qcurve"/>
      <point x="253" y="-190" type="line"/>
      <point x="253" y="-190"/>
      <point x="227" y="-199"/>
      <point x="190" y="-211"/>
      <point x="156" y="-222"/>
      <point x="148" y="-224" type="qcurve" smooth="yes"/>
      <point x="114" y="-234"/>
      <point x="57" y="-219"/>
      <point x="23" y="-178"/>
      <point x="19" y="-120"/>
      <point x="38" y="-87" type="qcurve"/>
      <point x="93" y="3" type="line"/>
      <point x="93" y="7" type="line"/>
    </contour>
  </outline>
</glyph>
<glyph name="Xi" format="1">
  <advance width="565"/>
  <unicode hex="039E"/>
  <outline>
    <contour>
      <point x="24" y="594" type="line"/>
      <point x="40" y="650"/>
      <point x="110" y="698"/>
      <point x="170" y="698" type="qcurve" smooth="yes"/>
      <point x="494" y="698" type="line"/>
      <point x="473" y="588" type="line"/>
      <point x="191" y="588" type="line" smooth="yes"/>
      <point x="154" y="588"/>
      <point x="110" y="566"/>
      <point x="101" y="543" type="qcurve"/>
    </contour>
    <contour>
      <point x="416" y="306" type="line"/>
      <point x="150" y="306" type="line"/>
      <point x="150" y="413" type="line"/>
      <point x="416" y="413" type="line"/>
    </contour>
    <contour>
      <point x="349" y="100" type="line" smooth="yes"/>
      <point x="389" y="100"/>
      <point x="430" y="123"/>
      <point x="441" y="156" type="qcurve"/>
      <point x="534" y="106" type="line"/>
      <point x="518" y="50"/>
      <point x="448" y="0"/>
      <point x="389" y="0" type="qcurve" smooth="yes"/>
      <point x="64" y="0" type="line"/>
      <point x="95" y="100" type="line"/>
    </contour>
  </outline>
</glyph>
<glyph name="Omegagreek" format="1">
  <advance width="583"/>
  <unicode hex="03A9"/>
    <anchor name="tonos" x="97" y="700"/>
  <outline>
    <contour>
      <point x="535" y="226" type="line" smooth="yes"/>
      <point x="535" y="170"/>
      <point x="515" y="115"/>
      <point x="483" y="101" type="qcurve"/>
      <point x="532" y="101" type="line"/>
      <point x="548" y="0" type="line"/>
      <point x="320" y="0" type="line"/>
      <point x="320" y="101" type="line"/>
      <point x="336" y="101"/>
      <point x="369" y="102"/>
      <point x="385" y="109" type="qcurve" smooth="yes"/>
      <point x="404" y="117"/>
      <point x="425" y="155"/>
      <point x="425" y="196" type="qcurve" smooth="yes"/>
      <point x="425" y="468" type="line" smooth="yes"/>
      <point x="425" y="524"/>
      <point x="377" y="588"/>
      <point x="333" y="588" type="qcurve" smooth="yes"/>
      <point x="256" y="588" type="line" smooth="yes"/>
      <point x="204" y="588"/>
      <point x="157" y="535"/>
      <point x="157" y="468" type="qcurve" smooth="yes"/>
      <point x="157" y="195" type="line" smooth="yes"/>
      <point x="157" y="158"/>
      <point x="177" y="117"/>
      <point x="191" y="109" type="qcurve" smooth="yes"/>
      <point x="202" y="102"/>
      <point x="237" y="101"/>
      <point x="262" y="101" type="qcurve"/>
      <point x="262" y="0" type="line"/>
      <point x="34" y="0" type="line"/>
      <point x="52" y="101" type="line"/>
      <point x="99" y="101" type="line"/>
      <point x="76" y="107"/>
      <point x="54" y="151"/>
      <point x="48" y="206"/>
      <point x="48" y="226" type="qcurve" smooth="yes"/>
      <point x="48" y="502" type="line" smooth="yes"/>
      <point x="48" y="594"/>
      <point x="142" y="706"/>
      <point x="236" y="706" type="qcurve" smooth="yes"/>
      <point x="348" y="706" type="line" smooth="yes"/>
      <point x="441" y="706"/>
      <point x="535" y="594"/>
      <point x="535" y="502" type="qcurve" smooth="yes"/>
    </contour>
    <contour>
      <point x="97" y="700" type="move" name="tonos"/>
    </contour>
  </outline>
</glyph>
<glyph name="lambda" format="1">
  <advance width="516"/>
  <unicode hex="03BB"/>
  <outline>
    <contour>
      <point x="413" y="127" type="line"/>
      <point x="425" y="95"/>
      <point x="448" y="60"/>
      <point x="476" y="41"/>
      <point x="495" y="31" type="qcurve"/>
      <point x="495" y="31"/>
      <point x="471" y="9"/>
      <point x="440" y="-22" type="qcurve"/>
      <point x="396" y="-12"/>
      <point x="344" y="23"/>
      <point x="309" y="88"/>
      <point x="292" y="142" type="qcurve" smooth="yes"/>
      <point x="288" y="154"/>
      <point x="276" y="195"/>
      <point x="262" y="244"/>
      <point x="249" y="293"/>
      <point x="238" y="333"/>
      <point x="231" y="358"/>
      <point x="231" y="358" type="qcurve"/>
      <point x="231" y="358"/>
      <point x="225" y="355"/>
      <point x="224" y="352" type="qcurve"/>
      <point x="224" y="350"/>
      <point x="213" y="298"/>
      <point x="196" y="218"/>
      <point x="178" y="128"/>
      <point x="161" y="49"/>
      <point x="151" y="-1"/>
      <point x="151" y="-1" type="qcurve"/>
      <point x="24" y="-1" type="line"/>
      <point x="38" y="46"/>
      <point x="61" y="125"/>
      <point x="81" y="194"/>
      <point x="98" y="251"/>
      <point x="112" y="299"/>
      <point x="123" y="338"/>
      <point x="128" y="354" type="qcurve" smooth="yes"/>
      <point x="142" y="397"/>
      <point x="160" y="439"/>
      <point x="179" y="463"/>
      <point x="193" y="477" type="qcurve"/>
      <point x="170" y="549" type="line"/>
      <point x="161" y="574"/>
      <point x="141" y="602"/>
      <point x="113" y="614"/>
      <point x="91" y="614" type="qcurve"/>
      <point x="122" y="700" type="line"/>
      <point x="167" y="700"/>
      <point x="224" y="673"/>
      <point x="257" y="629"/>
      <point x="276" y="578"/>
      <point x="283" y="554" type="qcurve" smooth="yes"/>
    </contour>
  </outline>
</glyph>
<glyph name="quoteright" format="1">
  <advance width="173"/>
  <unicode hex="2019"/>
  <outline>
    <contour>
      <point x="53" y="550" type="line"/>
      <point x="61" y="564"/>
      <point x="69" y="593"/>
      <point x="72" y="608" type="qcurve"/>
      <point x="52" y="613"/>
      <point x="26" y="645"/>
      <point x="26" y="665" type="qcurve" smooth="yes"/>
      <point x="26" y="689"/>
      <point x="61" y="725"/>
      <point x="86" y="725" type="qcurve" smooth="yes"/>
      <point x="111" y="725"/>
      <point x="145" y="689"/>
      <point x="145" y="665" type="qcurve" smooth="yes"/>
      <point x="145" y="631"/>
      <point x="125" y="581"/>
      <point x="98" y="548"/>
      <point x="78" y="532"/>
      <point x="78" y="532" type="qcurve"/>
    </contour>
  </outline>
</glyph>
<glyph name="quotesinglbase" format="1">
  <advance width="188"/>
  <unicode hex="201A"/>
  <outline>
    <contour>
      <point x="62" y="-73" type="line"/>
      <point x="70" y="-59"/>
      <point x="78" y="-29"/>
      <point x="79" y="-15" type="qcurve"/>
      <point x="60" y="-10"/>
      <point x="35" y="22"/>
      <point x="35" y="43" type="qcurve" smooth="yes"/>
      <point x="35" y="68"/>
      <point x="69" y="102"/>
      <point x="94" y="102" type="qcurve" smooth="yes"/>
      <point x="119" y="102"/>
      <point x="153" y="68"/>
      <point x="153" y="43" type="qcurve" smooth="yes"/>
      <point x="153" y="9"/>
      <point x="133" y="-41"/>
      <point x="106" y="-73"/>
      <point x="86" y="-89"/>
      <point x="86" y="-89" type="qcurve"/>
    </contour>
  </outline>
</glyph>
<glyph name="quotedblright" format="1">
  <advance width="354"/>
  <unicode hex="201D"/>
  <outline>
    <contour>
      <point x="54" y="550" type="line"/>
      <point x="62" y="564"/>
      <point x="69" y="593"/>
      <point x="71" y="608" type="qcurve"/>
      <point x="52" y="613"/>
      <point x="26" y="645"/>
      <point x="26" y="665" type="qcurve" smooth="yes"/>
      <point x="26" y="689"/>
      <point x="61" y="725"/>
      <point x="86" y="725" type="qcurve" smooth="yes"/>
      <point x="111" y="725"/>
      <point x="145" y="689"/>
      <point x="145" y="665" type="qcurve" smooth="yes"/>
      <point x="145" y="631"/>
      <point x="124" y="581"/>
      <point x="98" y="548"/>
      <point x="77" y="532"/>
      <point x="77" y="532" type="qcurve"/>
    </contour>
    <contour>
      <point x="233" y="550" type="line"/>
      <point x="241" y="564"/>
      <point x="250" y="593"/>
      <point x="251" y="608" type="qcurve"/>
      <point x="232" y="613"/>
      <point x="206" y="645"/>
      <point x="206" y="665" type="qcurve" smooth="yes"/>
      <point x="206" y="689"/>
      <point x="240" y="725"/>
      <point x="265" y="725" type="qcurve" smooth="yes"/>
      <point x="290" y="725"/>
      <point x="326" y="689"/>
      <point x="326" y="665" type="qcurve" smooth="yes"/>
      <point x="326" y="631"/>
      <point x="305" y="581"/>
      <point x="279" y="548"/>
      <point x="258" y="532"/>
      <point x="258" y="532" type="qcurve"/>
    </contour>
  </outline>
</glyph>
<glyph name="quotedblbase" format="1">
  <advance width="369"/>
  <unicode hex="201E"/>
  <outline>
    <contour>
      <point x="61" y="-73" type="line"/>
      <point x="69" y="-59"/>
      <point x="78" y="-29"/>
      <point x="80" y="-15" type="qcurve"/>
      <point x="60" y="-10"/>
      <point x="35" y="22"/>
      <point x="35" y="43" type="qcurve" smooth="yes"/>
      <point x="35" y="68"/>
      <point x="69" y="102"/>
      <point x="94" y="102" type="qcurve" smooth="yes"/>
      <point x="118" y="102"/>
      <point x="153" y="68"/>
      <point x="153" y="43" type="qcurve" smooth="yes"/>
      <point x="153" y="9"/>
      <point x="133" y="-41"/>
      <point x="106" y="-73"/>
      <point x="86" y="-89"/>
      <point x="86" y="-89" type="qcurve"/>
    </contour>
    <contour>
      <point x="242" y="-73" type="line"/>
      <point x="249" y="-59"/>
      <point x="257" y="-29"/>
      <point x="258" y="-15" type="qcurve"/>
      <point x="240" y="-10"/>
      <point x="214" y="22"/>
      <point x="214" y="43" type="qcurve" smooth="yes"/>
      <point x="214" y="68"/>
      <point x="248" y="102"/>
      <point x="273" y="102" type="qcurve" smooth="yes"/>
      <point x="298" y="102"/>
      <point x="334" y="68"/>
      <point x="334" y="43" type="qcurve" smooth="yes"/>
      <point x="334" y="9"/>
      <point x="314" y="-41"/>
      <point x="287" y="-73"/>
      <point x="267" y="-89"/>
      <point x="267" y="-89" type="qcurve"/>
    </contour>
  </outline>
</glyph>
<glyph name="perthousand" format="1">
  <advance width="1070"/>
  <unicode hex="2030"/>
  <outline>
    <contour>
      <point x="35" y="0" type="line"/>
      <point x="572" y="698" type="line"/>
      <point x="689" y="698" type="line"/>
      <point x="149" y="0" type="line"/>
    </contour>
    <contour>
      <point x="187" y="713" type="qcurve" smooth="yes"/>
      <point x="227" y="713"/>
      <point x="293" y="674"/>
      <point x="332" y="608"/>
      <point x="332" y="568" type="qcurve" smooth="yes"/>
      <point x="332" y="528"/>
      <point x="293" y="461"/>
      <point x="227" y="422"/>
      <point x="187" y="422" type="qcurve" smooth="yes"/>
      <point x="147" y="422"/>
      <point x="81" y="461"/>
      <point x="42" y="528"/>
      <point x="42" y="568" type="qcurve" smooth="yes"/>
      <point x="42" y="608"/>
      <point x="81" y="674"/>
      <point x="147" y="713"/>
    </contour>
    <contour>
      <point x="187" y="620" type="qcurve" smooth="yes"/>
      <point x="173" y="620"/>
      <point x="149" y="606"/>
      <point x="135" y="582"/>
      <point x="135" y="568" type="qcurve" smooth="yes"/>
      <point x="135" y="554"/>
      <point x="149" y="529"/>
      <point x="173" y="515"/>
      <point x="187" y="515" type="qcurve" smooth="yes"/>
      <point x="202" y="515"/>
      <point x="225" y="529"/>
      <point x="239" y="554"/>
      <point x="239" y="568" type="qcurve" smooth="yes"/>
      <point x="239" y="582"/>
      <point x="225" y="606"/>
      <point x="202" y="620"/>
    </contour>
    <contour>
      <point x="547" y="277" type="qcurve" smooth="yes"/>
      <point x="588" y="277"/>
      <point x="654" y="238"/>
      <point x="693" y="172"/>
      <point x="693" y="131" type="qcurve" smooth="yes"/>
      <point x="693" y="91"/>
      <point x="654" y="25"/>
      <point x="588" y="-14"/>
      <point x="547" y="-14" type="qcurve" smooth="yes"/>
      <point x="507" y="-14"/>
      <point x="442" y="25"/>
      <point x="403" y="91"/>
      <point x="403" y="131" type="qcurve" smooth="yes"/>
      <point x="403" y="172"/>
      <point x="442" y="238"/>
      <point x="507" y="277"/>
    </contour>
    <contour>
      <point x="547" y="184" type="qcurve" smooth="yes"/>
      <point x="533" y="184"/>
      <point x="509" y="169"/>
      <point x="495" y="145"/>
      <point x="495" y="131" type="qcurve" smooth="yes"/>
      <point x="495" y="117"/>
      <point x="509" y="93"/>
      <point x="533" y="79"/>
      <point x="547" y="79" type="qcurve" smooth="yes"/>
      <point x="562" y="79"/>
      <point x="586" y="93"/>
      <point x="600" y="117"/>
      <point x="600" y="131" type="qcurve" smooth="yes"/>
      <point x="600" y="145"/>
      <point x="586" y="169"/>
      <point x="562" y="184"/>
    </contour>
    <contour>
      <point x="893" y="277" type="qcurve" smooth="yes"/>
      <point x="933" y="277"/>
      <point x="999" y="238"/>
      <point x="1039" y="172"/>
      <point x="1039" y="131" type="qcurve" smooth="yes"/>
      <point x="1039" y="91"/>
      <point x="999" y="25"/>
      <point x="933" y="-14"/>
      <point x="893" y="-14" type="qcurve" smooth="yes"/>
      <point x="853" y="-14"/>
      <point x="787" y="25"/>
      <point x="748" y="91"/>
      <point x="748" y="131" type="qcurve" smooth="yes"/>
      <point x="748" y="172"/>
      <point x="787" y="238"/>
      <point x="853" y="277"/>
    </contour>
    <contour>
      <point x="893" y="184" type="qcurve" smooth="yes"/>
      <point x="878" y="184"/>
      <point x="854" y="169"/>
      <point x="841" y="145"/>
      <point x="841" y="131" type="qcurve" smooth="yes"/>
      <point x="841" y="117"/>
      <point x="854" y="93"/>
      <point x="878" y="79"/>
      <point x="893" y="79" type="qcurve" smooth="yes"/>
      <point x="908" y="79"/>
      <point x="932" y="93"/>
      <point x="946" y="117"/>
      <point x="946" y="131" type="qcurve" smooth="yes"/>
      <point x="946" y="145"/>
      <point x="932" y="169"/>
      <point x="908" y="184"/>
    </contour>
  </outline>
</glyph>
<glyph name="Y_upper_alt" format="1">
  <advance width="493"/>
  <unicode hex="9997"/>
  <outline>
    <contour>
      <point x="301" y="315" type="line"/>
      <point x="301" y="0" type="line"/>
      <point x="189" y="0" type="line"/>
      <point x="189" y="315" type="line"/>
      <point x="10" y="698" type="line"/>
      <point x="126" y="698" type="line"/>
      <point x="245" y="433" type="line"/>
      <point x="364" y="698" type="line"/>
      <point x="481" y="698" type="line"/>
    </contour>
  </outline>
</glyph>
<glyph name="commaaccent" format="1">
  <advance width="266"/>
  <unicode hex="F6C3"/>
  <outline>
    <contour>
      <point x="101" y="-236" type="line"/>
      <point x="109" y="-222"/>
      <point x="116" y="-193"/>
      <point x="119" y="-178" type="qcurve"/>
      <point x="99" y="-173"/>
      <point x="74" y="-141"/>
      <point x="74" y="-120" type="qcurve" smooth="yes"/>
      <point x="74" y="-96"/>
      <point x="109" y="-61"/>
      <point x="134" y="-61" type="qcurve" smooth="yes"/>
      <point x="158" y="-61"/>
      <point x="192" y="-96"/>
      <point x="192" y="-120" type="qcurve" smooth="yes"/>
      <point x="192" y="-154"/>
      <point x="172" y="-204"/>
      <point x="145" y="-237"/>
      <point x="125" y="-253"/>
      <point x="125" y="-253" type="qcurve"/>
    </contour>
  </outline>
</glyph>
<glyph name="ff" format="1">
  <advance width="522"/>
  <unicode hex="FB00"/>
  <outline>
    <contour>
      <point x="469" y="588" type="line"/>
      <point x="460" y="592"/>
      <point x="444" y="595"/>
      <point x="437" y="595" type="qcurve" smooth="yes"/>
      <point x="412" y="595"/>
      <point x="387" y="560"/>
      <point x="387" y="528" type="qcurve" smooth="yes"/>
      <point x="387" y="499" type="line"/>
      <point x="475" y="499" type="line"/>
      <point x="450" y="396" type="line"/>
      <point x="385" y="396" type="line"/>
      <point x="385" y="0" type="line"/>
      <point x="275" y="0" type="line"/>
      <point x="275" y="500" type="line" smooth="yes"/>
      <point x="275" y="521"/>
      <point x="277" y="561"/>
      <point x="281" y="582" type="qcurve"/>
      <point x="273" y="590"/>
      <point x="242" y="598"/>
      <point x="227" y="598" type="qcurve" smooth="yes"/>
      <point x="209" y="598"/>
      <point x="175" y="587"/>
      <point x="153" y="556"/>
      <point x="152" y="524" type="qcurve"/>
      <point x="152" y="499" type="line"/>
      <point x="239" y="499" type="line"/>
      <point x="215" y="396" type="line"/>
      <point x="152" y="396" type="line"/>
      <point x="152" y="0" type="line"/>
      <point x="39" y="0" type="line"/>
      <point x="39" y="510" type="line" smooth="yes"/>
      <point x="39" y="568"/>
      <point x="80" y="655"/>
      <point x="166" y="705"/>
      <point x="234" y="705" type="qcurve" smooth="yes"/>
      <point x="259" y="705"/>
      <point x="317" y="693"/>
      <point x="350" y="685" type="qcurve"/>
      <point x="367" y="694"/>
      <point x="402" y="702"/>
      <point x="421" y="702" type="qcurve" smooth="yes"/>
      <point x="440" y="702"/>
      <point x="478" y="695"/>
      <point x="497" y="690" type="qcurve"/>
    </contour>
  </outline>
</glyph>
<glyph name="fi" format="1">
  <advance width="417"/>
  <unicode hex="FB01"/>
  <outline>
    <contour>
      <point x="40" y="538" type="line" smooth="yes"/>
      <point x="40" y="579"/>
      <point x="67" y="642"/>
      <point x="89" y="664" type="qcurve" smooth="yes"/>
      <point x="111" y="686"/>
      <point x="169" y="708"/>
      <point x="202" y="708" type="qcurve" smooth="yes"/>
      <point x="244" y="708"/>
      <point x="334" y="671"/>
      <point x="362" y="630" type="qcurve"/>
      <point x="269" y="573" type="line"/>
      <point x="256" y="589"/>
      <point x="226" y="602"/>
      <point x="212" y="602" type="qcurve" smooth="yes"/>
      <point x="191" y="602"/>
      <point x="165" y="582"/>
      <point x="153" y="545"/>
      <point x="153" y="521" type="qcurve" smooth="yes"/>
      <point x="153" y="499" type="line"/>
      <point x="240" y="499" type="line"/>
      <point x="216" y="396" type="line"/>
      <point x="153" y="396" type="line"/>
      <point x="153" y="0" type="line"/>
      <point x="40" y="0" type="line"/>
    </contour>
    <contour>
      <point x="377" y="0" type="line"/>
      <point x="270" y="0" type="line"/>
      <point x="270" y="499" type="line"/>
      <point x="377" y="499" type="line"/>
    </contour>
  </outline>
</glyph>
<glyph name="fl" format="1">
  <advance width="419"/>
  <unicode hex="FB02"/>
  <outline>
    <contour>
      <point x="266" y="592" type="line"/>
      <point x="258" y="601"/>
      <point x="234" y="609"/>
      <point x="220" y="609" type="qcurve" smooth="yes"/>
      <point x="204" y="609"/>
      <point x="173" y="597"/>
      <point x="152" y="570"/>
      <point x="152" y="548" type="qcurve" smooth="yes"/>
      <point x="152" y="499" type="line"/>
      <point x="239" y="499" type="line"/>
      <point x="215" y="396" type="line"/>
      <point x="152" y="396" type="line"/>
      <point x="152" y="0" type="line"/>
      <point x="39" y="0" type="line"/>
      <point x="39" y="516" type="line" smooth="yes"/>
      <point x="39" y="557"/>
      <point x="61" y="627"/>
      <point x="107" y="679"/>
      <point x="180" y="708"/>
      <point x="231" y="708" type="qcurve" smooth="yes"/>
      <point x="264" y="708"/>
      <point x="332" y="697"/>
      <point x="376" y="685" type="qcurve"/>
      <point x="376" y="0" type="line"/>
      <point x="266" y="0" type="line"/>
    </contour>
  </outline>
</glyph>
